<svg xmlns="http://www.w3.org/2000/svg" width="107.877" height="38.744" viewBox="0 0 107.877 38.744">
  <g id="Logo_Wydin" data-name="Logo Wydin" transform="translate(-0.408 -11.199)">
    <path id="Logo_Text" data-name="Logo Text" d="M36.293,14.393,29,41H24.01L18.944,22.39a12.721,12.721,0,0,1-.39-2.6H18.48a12.605,12.605,0,0,1-.445,2.561L12.951,41h-5.1L.408,14.393H5.251l4.824,19.482a14.19,14.19,0,0,1,.371,2.561h.093a14.527,14.527,0,0,1,.52-2.561l5.455-19.482H21.06l5.047,19.631A15.33,15.33,0,0,1,26.5,36.4h.074A14.581,14.581,0,0,1,27,33.949l4.731-19.557ZM55.961,22,47.389,44.043q-2.672,5.9-7.5,5.9a8.988,8.988,0,0,1-2.264-.241V46.121a6.02,6.02,0,0,0,1.855.334,3.829,3.829,0,0,0,3.6-2.375l1.28-3.117L36.813,22h4.769l4.527,13.8q.074.26.334,1.373h.093q.093-.427.334-1.336L51.619,22ZM75.814,41h-4.3V37.771h-.074a7.43,7.43,0,0,1-12.014,1.123,10.591,10.591,0,0,1-2.106-6.949,11.538,11.538,0,0,1,2.329-7.552,7.621,7.621,0,0,1,6.207-2.839,5.943,5.943,0,0,1,5.585,3.08h.074V12.871h4.3Zm-4.249-8.684V29.83A4.844,4.844,0,0,0,70.248,26.4a4.394,4.394,0,0,0-3.358-1.41,4.522,4.522,0,0,0-3.794,1.8,8.02,8.02,0,0,0-1.382,4.991,7.186,7.186,0,0,0,1.327,4.574,4.315,4.315,0,0,0,3.572,1.679,4.467,4.467,0,0,0,3.581-1.624A6.117,6.117,0,0,0,71.565,32.316ZM83.607,18.011a2.588,2.588,0,0,1-1.809-.687,2.259,2.259,0,0,1-.751-1.744,2.317,2.317,0,0,1,.751-1.763,2.55,2.55,0,0,1,1.809-.705,2.63,2.63,0,0,1,1.855.705,2.3,2.3,0,0,1,.761,1.763,2.271,2.271,0,0,1-.761,1.716A2.61,2.61,0,0,1,83.607,18.011ZM85.741,41h-4.3V22h4.3Zm22.544,0h-4.3V30.294q0-5.325-3.767-5.325a4.112,4.112,0,0,0-3.247,1.475,5.472,5.472,0,0,0-1.28,3.72V41H91.363V22h4.323v3.154h.074a6.772,6.772,0,0,1,6.16-3.6,5.737,5.737,0,0,1,4.731,2.013,9.04,9.04,0,0,1,1.633,5.817Z" fill="#fff"/>
    <circle id="Logo_dot" data-name="Logo dot" cx="4" cy="4" r="4" transform="translate(80 11.199)" fill="#79dc28"/>
  </g>
</svg>
